# xmcd
#
# Track frame offsets: 
#        150
#        11784
#        23769
#        34555
#        45409
#        57902
#        70625
#        84152
#        95922
#        107883
#        119676
#        130979
#        144030
#        156755
#        169104
#        179380
#        190149
#        201548
#        214454
#        224059
#        236261
#        248596
#        261122
#        272603
#        285722
#
# Disc length: 3942 seconds
#
# Revision: 4
# Processed by: cddbd v1.5.2PL0 Copyright (c) Steve Scherf et al.
# Submitted via: ExactAudioCopyFreeDBPlugin 1.0
#
DISCID=6e0f6419
DTITLE=Various Artist - Rhythm 'n' Blues:  Fine Brown Sugar [Membran 
DTITLE=Music] [box set]
DYEAR=2005
DGENRE=Rhythm and Blues
TTITLE0=Mabel Scott - Good Lookin' Fella
TTITLE1=Big Mama Thornton - I Smell a Rat
TTITLE2=Rosetta Howard - Men Are Like Streetcars
TTITLE3=Lula Reed - Sick and Tired
TTITLE4=Little Esther - The Deacon Moves in
TTITLE5=Lil Greenwood - Grandpa Can Boogie Too
TTITLE6=Camille Howard - Try Try Again
TTITLE7=Ruth Brown - I'll Wait for You
TTITLE8=Annie Laurie - It's Been a Long Time
TTITLE9=Little Sylvia Vanderpool - Fine Love
TTITLE10=Mabel Scott - Disgusted
TTITLE11=Dinah Washington - Short John
TTITLE12=Albinia Jones - What's the Matter with Me
TTITLE13=Annisteen Allen - I've Got Big Bulgin' Eyes for You
TTITLE14=Erline Harris - I Never Missed My Baby
TTITLE15=Ella Johnson - Till My Baby Comes Back
TTITLE16=Margie Day - Sadie Green
TTITLE17=Big Maybelle - One Monkey Don't Stop No Show
TTITLE18=Lula Reed - Rock Love
TTITLE19=Kitty Stevenson - Good Man
TTITLE20=Ruth Brown - I Would If I Could
TTITLE21=Terry Timmons - The Same Old Thrill
TTITLE22=Tina Dixon - Blow Mr. Be Bop
TTITLE23=Chubby Newsome - New Orleans Man
TTITLE24=Little Esther - Flesh, Blood and Bones
EXTD=
EXTT0=
EXTT1=
EXTT2=
EXTT3=
EXTT4=
EXTT5=
EXTT6=
EXTT7=
EXTT8=
EXTT9=
EXTT10=
EXTT11=
EXTT12=
EXTT13=
EXTT14=
EXTT15=
EXTT16=
EXTT17=
EXTT18=
EXTT19=
EXTT20=
EXTT21=
EXTT22=
EXTT23=
EXTT24=
PLAYORDER=
